<svg id="visual" viewBox="0 0 960 540" width="960" height="540" xmlns="http://www.w3.org/2000/svg" xmlns:xlink="http://www.w3.org/1999/xlink" version="1.1"><path d="M245 0L241.5 15C238 30 231 60 222.5 90C214 120 204 150 214.2 180C224.3 210 254.7 240 276.8 270C299 300 313 330 318 360C323 390 319 420 338.5 450C358 480 401 510 422.5 525L444 540L0 540L0 525C0 510 0 480 0 450C0 420 0 390 0 360C0 330 0 300 0 270C0 240 0 210 0 180C0 150 0 120 0 90C0 60 0 30 0 15L0 0Z" fill="#ffd100" stroke-linecap="round" stroke-linejoin="miter"></path></svg>